<svg xmlns="http://www.w3.org/2000/svg" width="512" height="512" viewBox="0 0 100 100" fill="none" stroke="#0f1319" stroke-width="3.5" stroke-linejoin="round" stroke-linecap="round"><g transform="translate(50,50) scale(0.4512) translate(-50,-50)"><g fill="none" stroke="#0f1319" stroke-width="13.00" stroke-linecap="round"><path d="M26 26L74 74"></path><path d="M74 26L26 74"></path></g><g fill="none" stroke="#4a5570" stroke-width="7.00" stroke-linecap="round"><path d="M26 26L74 74"></path><path d="M74 26L26 74"></path></g><circle cx="23" cy="23" r="14" fill="#d8eef8"></circle><circle cx="77" cy="23" r="14" fill="#d8eef8"></circle><circle cx="23" cy="77" r="14" fill="#d8eef8"></circle><circle cx="77" cy="77" r="14" fill="#d8eef8"></circle><path d="M50 23l10 15H40z" fill="#6feaff"></path><path d="M41 36h18q5 0 5 5v18q0 5-5 5H41q-5 0-5-5V41q0-5 5-5z" fill="#e8f6fc"></path><circle cx="23" cy="23" r="6" fill="#2d7e9c" stroke="none"></circle><circle cx="77" cy="23" r="6" fill="#2d7e9c" stroke="none"></circle><circle cx="23" cy="77" r="6" fill="#2d7e9c" stroke="none"></circle><circle cx="77" cy="77" r="6" fill="#2d7e9c" stroke="none"></circle></g></svg>