<svg xmlns="http://www.w3.org/2000/svg" width="512" height="512" viewBox="0 0 100 100" fill="none" stroke="#0f1319" stroke-width="3.5" stroke-linejoin="round" stroke-linecap="round"><g transform="translate(50,50) scale(0.4458) translate(-50,-50)"><path d="M50 66q9 10-2 14t2 14" fill="none" stroke-width="3.00"></path><path d="M50 11q25 0 25 27 0 20-15 30-6 4-10 4t-10-4q-15-10-15-30 0-27 25-27z" fill="#ffb347"></path><path d="M43 22q-7 8-7 18 0 8 3 13-9-8-9-20 0-9 5-15z" fill="#ffb0dd"></path><path d="M44 71q6-4 12 0l-6 8z" fill="#a6742e"></path></g></svg>