<svg xmlns="http://www.w3.org/2000/svg" width="512" height="512" viewBox="0 0 100 100" fill="none" stroke="#0f1319" stroke-width="3.5" stroke-linejoin="round" stroke-linecap="round"><g transform="translate(50,50) scale(0.4302) translate(-50,-50)"><g transform="translate(19,50) rotate(-90) scale(0.2) translate(-50,-93)" stroke-width="17.00"><path d="M45 7C57 20 70 32 72 48C76 44 80 38 83 44C88 58 86 74 74 84C66 91 56 93 50 93C44 93 34 91 26 84C14 74 12 56 17 42C20 36 24 32 28 38C32 42 36 40 37 34C39 24 43 16 45 7Z" fill="#ffd27a"></path><path d="M50 40C57 48 63 55 64 63C66 60 69 57 71 61C74 69 72 80 64 86C59 90 54 91 50 91C46 91 41 90 36 86C28 80 26 69 29 61C31 57 34 60 36 63C38 55 44 48 50 40Z" fill="#ff8f6b" stroke="none"></path></g><path d="M21 31q-5 0-5 19 0 19 5 19h8q3 0 3-19 0-19-3-19z" fill="#c8ced8"></path><path d="M41 29q-7 0-7 21 0 21 7 21h15q32 0 32-21 0-21-32-21z" fill="#e8edf2"></path><path d="M58 35q22 3 22 15" fill="none" stroke="#ffffff" stroke-width="4.00"></path></g></svg>