<svg xmlns="http://www.w3.org/2000/svg" width="624" height="1008" viewBox="0 0 208 336"><defs><radialGradient id="g1" cx="22%" cy="18%" r="70%"><stop offset="0" stop-color="#5676c8" stop-opacity=".26"></stop><stop offset=".72" stop-color="#5676c8" stop-opacity="0"></stop></radialGradient><radialGradient id="g2" cx="78%" cy="62%" r="55%"><stop offset="0" stop-color="#945cbe" stop-opacity=".2"></stop><stop offset=".74" stop-color="#945cbe" stop-opacity="0"></stop></radialGradient><radialGradient id="g3" cx="50%" cy="100%" r="60%"><stop offset="0" stop-color="#3c5aa0" stop-opacity=".18"></stop><stop offset=".7" stop-color="#3c5aa0" stop-opacity="0"></stop></radialGradient></defs><rect width="208" height="336" fill="#060a18"></rect><rect width="208" height="336" fill="url(#g1)"></rect><rect width="208" height="336" fill="url(#g2)"></rect><rect width="208" height="336" fill="url(#g3)"></rect><circle cx="107.8" cy="107.7" r="0.75" fill="#e8f0ff" opacity="0.39"></circle><circle cx="198.6" cy="222.9" r="1.61" fill="#e8f0ff" opacity="0.57"></circle><circle cx="188.3" cy="158.3" r="1.20" fill="#e8f0ff" opacity="0.44"></circle><circle cx="174.6" cy="59.1" r="0.95" fill="#e8f0ff" opacity="0.41"></circle><circle cx="16.3" cy="95.4" r="0.73" fill="#e8f0ff" opacity="0.60"></circle><circle cx="142.2" cy="312.9" r="0.69" fill="#e8f0ff" opacity="0.80"></circle><circle cx="2.7" cy="35.4" r="1.09" fill="#e8f0ff" opacity="0.74"></circle><circle cx="196.1" cy="179.6" r="1.63" fill="#e8f0ff" opacity="0.28"></circle><circle cx="157.6" cy="81.8" r="1.79" fill="#e8f0ff" opacity="0.54"></circle><circle cx="146.5" cy="260.5" r="0.67" fill="#e8f0ff" opacity="0.58"></circle><circle cx="44.7" cy="27.2" r="0.80" fill="#e8f0ff" opacity="0.61"></circle><circle cx="165.4" cy="24.9" r="1.01" fill="#e8f0ff" opacity="0.65"></circle><circle cx="120.9" cy="286.6" r="0.70" fill="#e8f0ff" opacity="0.34"></circle><circle cx="116.7" cy="198.5" r="0.76" fill="#e8f0ff" opacity="0.78"></circle><circle cx="96.2" cy="30.2" r="0.83" fill="#e8f0ff" opacity="0.35"></circle><circle cx="64.5" cy="1.5" r="0.67" fill="#e8f0ff" opacity="0.40"></circle><circle cx="134.7" cy="245.3" r="0.99" fill="#e8f0ff" opacity="0.59"></circle><circle cx="88.5" cy="321.7" r="0.77" fill="#e8f0ff" opacity="0.62"></circle><circle cx="115.9" cy="301.3" r="1.59" fill="#e8f0ff" opacity="0.58"></circle><circle cx="29.5" cy="55.6" r="1.00" fill="#e8f0ff" opacity="0.45"></circle><circle cx="73.2" cy="115.4" r="1.81" fill="#e8f0ff" opacity="0.67"></circle><circle cx="205.9" cy="66.1" r="1.45" fill="#e8f0ff" opacity="0.66"></circle><circle cx="147.7" cy="189.5" r="1.79" fill="#e8f0ff" opacity="0.75"></circle><circle cx="188.8" cy="307.4" r="1.97" fill="#e8f0ff" opacity="0.30"></circle><circle cx="57.0" cy="191.7" r="1.26" fill="#e8f0ff" opacity="0.46"></circle><circle cx="4.0" cy="199.0" r="1.35" fill="#e8f0ff" opacity="0.70"></circle><circle cx="158.1" cy="113.6" r="0.74" fill="#e8f0ff" opacity="0.51"></circle><circle cx="16.0" cy="230.1" r="0.51" fill="#e8f0ff" opacity="0.37"></circle><circle cx="153.0" cy="308.0" r="0.70" fill="#e8f0ff" opacity="0.69"></circle><circle cx="119.6" cy="94.0" r="0.62" fill="#e8f0ff" opacity="0.49"></circle><circle cx="13.5" cy="69.5" r="1.70" fill="#e8f0ff" opacity="0.79"></circle><circle cx="109.4" cy="68.5" r="0.82" fill="#e8f0ff" opacity="0.52"></circle><circle cx="4.2" cy="136.7" r="1.11" fill="#e8f0ff" opacity="0.65"></circle><circle cx="188.2" cy="269.8" r="1.34" fill="#e8f0ff" opacity="0.32"></circle><circle cx="11.9" cy="40.7" r="1.22" fill="#e8f0ff" opacity="0.60"></circle><circle cx="158.3" cy="129.5" r="1.71" fill="#e8f0ff" opacity="0.79"></circle><circle cx="54.8" cy="47.0" r="1.93" fill="#e8f0ff" opacity="0.57"></circle><circle cx="207.2" cy="112.3" r="1.39" fill="#e8f0ff" opacity="0.73"></circle><circle cx="96.8" cy="296.6" r="1.93" fill="#e8f0ff" opacity="0.71"></circle><circle cx="167.8" cy="297.0" r="1.45" fill="#e8f0ff" opacity="0.72"></circle><circle cx="1.8" cy="171.6" r="0.85" fill="#e8f0ff" opacity="0.70"></circle><circle cx="166.2" cy="189.9" r="1.25" fill="#e8f0ff" opacity="0.80"></circle><circle cx="42.1" cy="235.9" r="0.93" fill="#e8f0ff" opacity="0.59"></circle><circle cx="158.5" cy="106.3" r="0.58" fill="#e8f0ff" opacity="0.31"></circle><circle cx="89.2" cy="33.4" r="0.69" fill="#e8f0ff" opacity="0.27"></circle><circle cx="24.2" cy="87.8" r="1.34" fill="#e8f0ff" opacity="0.56"></circle><circle cx="192.0" cy="140.7" r="1.59" fill="#e8f0ff" opacity="0.57"></circle><circle cx="4.5" cy="51.2" r="1.23" fill="#e8f0ff" opacity="0.72"></circle><circle cx="44.8" cy="76.5" r="0.71" fill="#e8f0ff" opacity="0.45"></circle><circle cx="32.8" cy="162.6" r="1.88" fill="#e8f0ff" opacity="0.67"></circle><circle cx="50.8" cy="131.2" r="0.89" fill="#e8f0ff" opacity="0.75"></circle><circle cx="34.6" cy="90.1" r="1.51" fill="#e8f0ff" opacity="0.65"></circle><circle cx="27.8" cy="60.0" r="0.94" fill="#e8f0ff" opacity="0.41"></circle><circle cx="158.8" cy="161.4" r="0.66" fill="#e8f0ff" opacity="0.76"></circle><circle cx="132.3" cy="16.6" r="1.76" fill="#e8f0ff" opacity="0.36"></circle><circle cx="107.5" cy="57.1" r="1.29" fill="#e8f0ff" opacity="0.81"></circle><circle cx="51.0" cy="29.8" r="1.54" fill="#e8f0ff" opacity="0.54"></circle><circle cx="60.4" cy="79.9" r="0.96" fill="#e8f0ff" opacity="0.58"></circle><circle cx="202.5" cy="41.6" r="0.91" fill="#e8f0ff" opacity="0.44"></circle><circle cx="74.2" cy="296.4" r="1.53" fill="#e8f0ff" opacity="0.50"></circle><circle cx="165.8" cy="168.2" r="1.60" fill="#e8f0ff" opacity="0.51"></circle><circle cx="35.7" cy="237.7" r="0.80" fill="#e8f0ff" opacity="0.32"></circle><circle cx="159.0" cy="177.3" r="1.64" fill="#e8f0ff" opacity="0.44"></circle><circle cx="171.0" cy="169.4" r="1.68" fill="#e8f0ff" opacity="0.55"></circle><circle cx="161.6" cy="197.4" r="1.98" fill="#e8f0ff" opacity="0.85"></circle><circle cx="28.1" cy="232.4" r="1.35" fill="#e8f0ff" opacity="0.76"></circle><circle cx="6.7" cy="307.4" r="0.71" fill="#e8f0ff" opacity="0.51"></circle><circle cx="94.9" cy="144.6" r="0.94" fill="#e8f0ff" opacity="0.61"></circle><circle cx="28.2" cy="13.7" r="1.67" fill="#e8f0ff" opacity="0.65"></circle><circle cx="19.6" cy="134.4" r="1.18" fill="#e8f0ff" opacity="0.77"></circle><circle cx="182.3" cy="303.4" r="1.67" fill="#e8f0ff" opacity="0.63"></circle><circle cx="89.9" cy="81.2" r="0.61" fill="#e8f0ff" opacity="0.53"></circle><circle cx="140.4" cy="210.2" r="1.10" fill="#e8f0ff" opacity="0.55"></circle><circle cx="146.4" cy="225.8" r="0.68" fill="#e8f0ff" opacity="0.68"></circle><circle cx="143.9" cy="323.0" r="0.66" fill="#e8f0ff" opacity="0.78"></circle><circle cx="91.7" cy="86.9" r="1.46" fill="#e8f0ff" opacity="0.83"></circle><circle cx="126.0" cy="135.7" r="1.96" fill="#e8f0ff" opacity="0.59"></circle><circle cx="120.8" cy="290.9" r="1.31" fill="#e8f0ff" opacity="0.60"></circle><circle cx="12.2" cy="324.5" r="1.77" fill="#e8f0ff" opacity="0.83"></circle><circle cx="51.6" cy="257.1" r="0.53" fill="#e8f0ff" opacity="0.73"></circle><circle cx="159.4" cy="209.1" r="0.58" fill="#e8f0ff" opacity="0.41"></circle><circle cx="40.5" cy="139.0" r="1.52" fill="#e8f0ff" opacity="0.34"></circle><circle cx="61.9" cy="142.1" r="1.87" fill="#e8f0ff" opacity="0.32"></circle><circle cx="190.3" cy="301.5" r="0.96" fill="#e8f0ff" opacity="0.59"></circle><circle cx="107.3" cy="90.4" r="1.71" fill="#e8f0ff" opacity="0.36"></circle><circle cx="87.7" cy="14.7" r="0.99" fill="#e8f0ff" opacity="0.36"></circle><g opacity=".7"><circle cx="144.2" cy="120.2" r="1.9" fill="#fdfbff"></circle><path d="M139.2 120.2h10M144.2 115.2v10" stroke="#fdfbff" stroke-width="1" opacity=".5"></path></g><g opacity=".7"><circle cx="201.6" cy="58.3" r="1.9" fill="#fdfbff"></circle><path d="M196.6 58.3h10M201.6 53.3v10" stroke="#fdfbff" stroke-width="1" opacity=".5"></path></g><g opacity=".7"><circle cx="143.3" cy="66.6" r="1.9" fill="#fdfbff"></circle><path d="M138.3 66.6h10M143.3 61.599999999999994v10" stroke="#fdfbff" stroke-width="1" opacity=".5"></path></g><g opacity=".7"><circle cx="187.5" cy="248.8" r="1.9" fill="#fdfbff"></circle><path d="M182.5 248.8h10M187.5 243.8v10" stroke="#fdfbff" stroke-width="1" opacity=".5"></path></g><g opacity=".7"><circle cx="59.5" cy="98.8" r="1.9" fill="#fdfbff"></circle><path d="M54.5 98.8h10M59.5 93.8v10" stroke="#fdfbff" stroke-width="1" opacity=".5"></path></g><path d="M130 60L190 12" stroke="#cfe4ff" stroke-width="2" stroke-linecap="round" opacity=".5" fill="none"></path><circle cx="190" cy="12" r="3.5" fill="#fdfbff"></circle></svg>